<svg xmlns="http://www.w3.org/2000/svg" width="134" height="62" viewBox="0 0 134 62">
  <g id="Group_22164" data-name="Group 22164" transform="translate(-233 -518)">
    <g id="Group_62201" data-name="Group 62201" transform="translate(-2273 691)">
      <g id="Group_62201-2" data-name="Group 62201" transform="translate(2506 -173)">
        <path id="Subtraction_3" data-name="Subtraction 3" d="M8.523,17.4a8.642,8.642,0,0,1-3.353-.637,8.115,8.115,0,0,1-2.739-1.911A8.512,8.512,0,0,1,.608,11.959,10.157,10.157,0,0,1,0,8.378,8.546,8.546,0,0,1,1.078,4.315a8.21,8.21,0,0,1,.987-1.45L8.75,9.682,5.077.677A9.232,9.232,0,0,1,8.661,0a8.922,8.922,0,0,1,3.585.688,7.364,7.364,0,0,1,2.724,2.066,10.037,10.037,0,0,1,1.721,2.923,9.351,9.351,0,0,1,.573,3.263,8.972,8.972,0,0,1-1.244,4.637,6.979,6.979,0,0,1-3.247,2.961A10.7,10.7,0,0,1,8.523,17.4Zm2.965-5.489a.881.881,0,1,0,.881.882A.882.882,0,0,0,11.489,11.911ZM7.671,10.735a.588.588,0,1,0,.587.588A.588.588,0,0,0,7.671,10.735ZM2.678,6.622a.881.881,0,1,0,.881.881A.882.882,0,0,0,2.678,6.622Zm9.4-1.763a1.469,1.469,0,1,0,1.469,1.469A1.47,1.47,0,0,0,12.076,4.859ZM9.727,1.921a.881.881,0,1,0,.881.882A.882.882,0,0,0,9.727,1.921Z" transform="translate(31.441 15.334)" fill="#ec430b"/>
        <path id="Path_59768" data-name="Path 59768" d="M-47.369-39.405a5.868,5.868,0,0,1-1.792,4.419A6.252,6.252,0,0,1-53.68-33.26h-7.873V-67.246h7.873a6.242,6.242,0,0,1,4.53,1.726A5.887,5.887,0,0,1-47.369-61.1Zm-3.057-.3V-60.84a3.591,3.591,0,0,0-1.067-2.7,3.8,3.8,0,0,0-2.76-1.032H-58.5v28.644h4.068a4.132,4.132,0,0,0,2.892-1.01A3.555,3.555,0,0,0-50.425-39.709Zm19.264-7.731h-2.881v-4.365l-5.388.174V-33.26h-2.925V-54.39h2.925v.586q1.451-.217,2.925-.456a20.637,20.637,0,0,1,2.925-.261,2.115,2.115,0,0,1,2.419,2.367ZM1.913-37.8a4.393,4.393,0,0,1-1.3,3.247A4.424,4.424,0,0,1-2.639-33.26H-7.455v8.013H-10.38V-54.39h2.925v.586l3.475-.434A28.822,28.822,0,0,1-.528-54.52a2.126,2.126,0,0,1,2.441,2.367Zm-2.925-.434V-51.806l-6.443.174V-35.8h4.046A2.134,2.134,0,0,0-1.012-38.233ZM-10.38-25.738h0Z" transform="translate(61.553 67.246)" fill="#242424"/>
      </g>
      <g id="Group_62202" data-name="Group 62202" transform="translate(2576.6 -173)">
        <path id="Path_59912" data-name="Path 59912" d="M228.431,322.058a11.04,11.04,0,0,0,3.7.49c1.714-.153,2.179-1.723,3.68-1.723a5.613,5.613,0,0,1,2.519.567v13.421h-9.9Z" transform="translate(-193.634 -303.283)" fill="#fbca01"/>
        <path id="Path_59911" data-name="Path 59911" d="M-47.529,28.77a2.3,2.3,0,0,1-.682,1.722,2.409,2.409,0,0,1-1.759.667h-9.038a2.409,2.409,0,0,1-1.759-.667,2.3,2.3,0,0,1-.682-1.722V-.136a2.3,2.3,0,0,1,.682-1.722,2.409,2.409,0,0,1,1.759-.667h9.038a2.409,2.409,0,0,1,1.759.667,2.3,2.3,0,0,1,.682,1.722V7.7h-3.079V.122h-7.785v28.39h7.785V16.868H-54.28V14.285h6.751Zm16.3-11.666h-2.881V12.778l-5.388.172V31.16h-2.925V10.217H-39.5V10.8q1.451-.215,2.925-.452a20.818,20.818,0,0,1,2.925-.258,2.106,2.106,0,0,1,2.419,2.346ZM-15.268,31.16h-2.881v-.581q-1.759.237-3.5.452a29.8,29.8,0,0,1-3.5.258,2.077,2.077,0,0,1-2.375-2.325V10.217h2.881V28.6l6.487-.172V10.217h2.881ZM1.951,26.725a4.334,4.334,0,0,1-1.3,3.218A4.445,4.445,0,0,1-2.6,31.223h-7.741V-2.461h2.925V10.862l3.475-.43a29.076,29.076,0,0,1,3.453-.28q2.441,0,2.441,2.346Zm-2.925-.43V12.842l-6.443.172V28.705h4.046A2.125,2.125,0,0,0-.974,26.294Z" transform="translate(61.449 2.525)" fill="#242424"/>
      </g>
    </g>
    <text id="Restaurant_Partner" data-name="Restaurant Partner" transform="translate(233 575)" fill="#242424" font-size="14" font-family="Poppins-Italic, Poppins" font-style="italic"><tspan x="0" y="0">Restaurant Partner</tspan></text>
  </g>
</svg>
